HIERARCHY
ROOT Hips
{
  OFFSET 196.326 95.9168 97.7182
  CHANNELS 6 Xposition Yposition Zposition Zrotation Xrotation Yrotation
  JOINT LeftUpLeg
  {
    OFFSET 8.64259 1.95398 -2.38835
    CHANNELS 3 Zrotation Xrotation Yrotation
    JOINT LeftLeg
    {
      OFFSET 43.7702 0 0
      CHANNELS 3 Zrotation Xrotation Yrotation
      JOINT LeftFoot
      {
        OFFSET 40.6238 0 0
        CHANNELS 3 Zrotation Xrotation Yrotation
        JOINT LeftToeBase
        {
          OFFSET 12.7242 0 0
          CHANNELS 3 Zrotation Xrotation Yrotation
          End Site
          {
            OFFSET 0 0 0
          }
        }
      }
    }
  }
  JOINT RightUpLeg
  {
    OFFSET -8.2249 1.95398 -2.59336
    CHANNELS 3 Zrotation Xrotation Yrotation
    JOINT RightLeg
    {
      OFFSET 43.5653 0 0
      CHANNELS 3 Zrotation Xrotation Yrotation
      JOINT RightFoot
      {
        OFFSET 40.6238 0 0
        CHANNELS 3 Zrotation Xrotation Yrotation
        JOINT RightToeBase
        {
          OFFSET 12.7242 0 0
          CHANNELS 3 Zrotation Xrotation Yrotation
          End Site
          {
            OFFSET 0 0 0
          }
        }
      }
    }
  }
  JOINT Spine
  {
    OFFSET 0.165834 0.87714 6.61349
    CHANNELS 3 Zrotation Xrotation Yrotation
    JOINT Spine1
    {
      OFFSET 7.38963 1.71661e-005 0
      CHANNELS 3 Zrotation Xrotation Yrotation
      JOINT Spine2
      {
        OFFSET 11.9445 1.14441e-005 0
        CHANNELS 3 Zrotation Xrotation Yrotation
        JOINT Spine3
        {
          OFFSET 14.7254 4.19617e-005 0
          CHANNELS 3 Zrotation Xrotation Yrotation
          JOINT Spine4
          {
            OFFSET 10.9679 0 0
            CHANNELS 3 Zrotation Xrotation Yrotation
            JOINT RightShoulder
            {
              OFFSET 2.46616 -1.6653 3.69651
              CHANNELS 3 Zrotation Xrotation Yrotation
              JOINT RightArm
              {
                OFFSET 13.0012 0 0
                CHANNELS 3 Zrotation Xrotation Yrotation
                JOINT RightForeArm
                {
                  OFFSET 28.7848 1.52588e-005 0
                  CHANNELS 3 Zrotation Xrotation Yrotation
                  JOINT RightHand
                  {
                    OFFSET 26.5688 1.52588e-005 0
                    CHANNELS 3 Zrotation Xrotation Yrotation
                    End Site
                    {
                      OFFSET 0 0 0
                    }
                  }
                }
              }
            }
            JOINT LeftShoulder
            {
              OFFSET 2.38034 -1.29275 -3.75231
              CHANNELS 3 Zrotation Xrotation Yrotation
              JOINT LeftArm
              {
                OFFSET 16.3182 6.10351e-005 0
                CHANNELS 3 Zrotation Xrotation Yrotation
                JOINT LeftForeArm
                {
                  OFFSET 27.0901 0 0
                  CHANNELS 3 Zrotation Xrotation Yrotation
                  JOINT LeftHand
                  {
                    OFFSET 24.5451 1.52588e-005 0
                    CHANNELS 3 Zrotation Xrotation Yrotation
                    End Site
                    {
                      OFFSET 0 0 0
                    }
                  }
                }
              }
            }
            JOINT Neck
            {
              OFFSET 5.0226 -0.0266342 0
              CHANNELS 3 Zrotation Xrotation Yrotation
              JOINT Head
              {
                OFFSET 6.69363 2.86102e-005 0
                CHANNELS 3 Zrotation Xrotation Yrotation
                End Site
                {
                  OFFSET 0 0 0
                }
              }
            }
          }
        }
      }
    }
  }
}
MOTION
Frames:	11
Frame Time:	0.0416667
31.543 83.1357 -20.0688 73.2885 -22.4768 83.0243 -162.679 59.4994 93.0626 -62.2976 7.65892 -2.26546 59.7971 9.05847 20.1015 60.0482 30.53 -8.03749 -169.85 39.6525 72.2107 -50.6958 4.87499 -11.604 73.8274 -7.64102 -3.57019 62.3636 5.04723 12.4237 0.0430726 8.97137 -90.5011 8.9295 -0.137349 -0.98238 -2.7418 -0.180434 -0.975382 -25.274 0.164242 -0.978241 -5.26137 0.164224 -0.978252 83.2627 -43.0991 -113.616 19.0763 3.54395 8.27331 -3.17659 -0.386668 -72.7676 -23.6903 -1.22015 0.684535 -108.233 -42.3679 48.4512 -30.6627 8.87227 15.4553 2.17045 2.94216 -37.6504 13.987 1.04573 3.50359 15.3612 27.5939 5.16361 4.77461 27.4162 19.5671 
33.5636 82.7608 -20.3419 74.5119 -19.3229 84.4153 -159.712 61.0908 92.0828 -63.339 3.8996 -2.43909 61.4693 9.62749 19.0391 55.1033 27.3087 -3.98458 -172.743 36.0903 72.6275 -49.8157 5.51616 -11.2812 75.9433 -8.41816 -3.78205 63.0827 4.57005 9.97134 0.174645 8.8772 -90.2299 9.1198 0.245445 -0.472726 -2.55121 0.224405 -0.483076 -25.0861 0.376191 -0.377089 -5.07343 0.376145 -0.377118 83.1479 -43.6001 -113.6 22.021 0.164763 6.89828 -8.82402 0.207233 -83.2051 -20.5479 -1.46461 3.23981 -105.159 -41.5504 52.6376 -36.18 11.6341 19.7067 2.67942 5.18906 -40.2042 12.9804 1.0414 4.01318 17.3347 25.8289 2.44385 4.48969 26.1755 18.8325 
36.5832 82.9263 -21.1409 75.5627 -15.0836 87.0943 -155.784 62.8866 90.7723 -65.3085 1.1784 -2.81726 61.2808 7.34891 16.5008 53.3226 25.9145 -2.82858 -176.919 30.4747 74.0032 -45.8602 6.71453 -10.3593 76.0839 -8.62768 -3.85073 65.2441 4.93146 10.0456 0.331767 8.73873 -90.1405 9.3973 0.598364 -0.323565 -2.27356 0.583564 -0.349585 -24.8097 0.667973 -0.128758 -4.79709 0.667969 -0.128759 84.3044 -43.9159 -111.618 25.7356 -4.36566 6.04087 -16.398 3.50846 -90.7699 -21.7702 -1.43494 2.88348 -101.809 -40.1549 57.137 -42.3522 12.3743 25.5573 3.30685 4.56546 -46.4186 14.0392 0.914338 2.58454 19.9727 24.1829 0.31623 3.04611 24.7726 17.8968 
41.0289 83.5836 -22.8926 75.3379 -10.1911 89.6744 -150.309 63.4675 87.1888 -67.0425 1.60503 -3.5076 61.3004 6.60409 15.4868 51.7 24.685 -1.45054 178.444 23.6095 74.5011 -39.1398 4.95816 -9.00277 73.0673 -6.88445 -3.23527 66.9369 4.64606 8.08829 0.534018 8.35362 -90.125 10.1683 1.00717 -0.332119 -1.50235 0.991557 -0.376127 -24.0406 1.0604 -0.0140363 -4.028 1.0604 -0.014041 85.5938 -43.7879 -109.578 29.1665 -8.71294 7.64945 -19.3911 6.61881 -100.801 -21.3301 -1.63005 4.25268 -100.225 -39.323 59.2706 -47.3898 12.3334 32.4704 2.66586 2.17376 -52.943 14.8121 0.870827 1.98631 18.9963 21.4852 -1.04047 3.34427 22.5547 16.9215 
46.2558 84.7464 -25.6172 75.1667 -6.40968 93.3083 -147.723 62.1824 86.7721 -67.3655 5.44946 -4.4887 59.261 5.52273 17.6228 57.0283 29.5187 -3.19187 174.605 15.366 75.1184 -29.8831 1.78913 -6.67349 64.6309 -3.63438 -1.87652 66.2057 3.69436 4.92874 0.785353 7.9614 -90.1813 10.9549 1.47966 -0.501416 -0.71533 1.45615 -0.566065 -23.2572 1.56193 -0.0334265 -3.24456 1.56192 -0.0334389 86.7155 -43.5398 -107.839 32.2411 -11.7641 9.76251 -24.0766 10.6658 -104.493 -19.1838 -1.80481 6.44172 -98.5957 -38.3065 61.4557 -51.4944 10.6367 37.4401 2.1457 0.812015 -56.2807 16.5288 0.860055 1.33274 17.3797 18.6833 -2.24593 3.66444 20.08 14.9566 
51.4602 86.0845 -29.343 76.542 -3.99513 97.1088 -149.645 57.4324 90.4889 -65.7091 9.70559 -5.63119 57.8771 3.96964 16.5297 57.7704 31.1791 -0.913602 172.779 6.73879 75.7745 -20.2922 4.5092 -5.00826 51.3748 -0.342188 0.220127 61.845 3.82899 7.63929 1.05783 7.93992 -90.2473 11.0011 1.99133 -0.682312 -0.668535 1.95936 -0.769329 -23.2159 2.10431 -0.0520326 -3.20324 2.1043 -0.0520411 87.3601 -43.0157 -106.952 33.8846 -13.7986 11.4493 -24.9003 10.8138 -104.232 -14.4029 -1.50699 7.5584 -98.4964 -37.6537 61.3276 -53.1838 6.36039 38.6034 0.447233 -1.56593 -56.2006 19.3853 0.836028 0.448455 17.8015 16.2353 -2.74288 4.42535 17.6718 11.9804 
56.658 87.045 -33.7715 74.0738 -0.227126 100.229 -151.581 53.6312 89.8857 -62.6144 11.1177 -6.63084 60.3715 7.98418 19.4849 63.9964 31.8391 -13.3483 174.267 3.53752 77.9269 -16.6818 10.7568 -5.43826 43.4886 0.829171 1.3475 39.2059 0.925698 8.61209 1.09951 7.70003 -90.2136 11.4817 2.08773 -0.639758 -0.187741 2.05755 -0.731077 -22.7364 2.18343 0.0175565 -2.72377 2.18345 0.0175537 87.5368 -42.3371 -106.88 34.6635 -15.074 13.0905 -24.6963 9.60311 -102.036 -18.1235 -1.69046 6.30381 -98.9146 -38.195 60.8822 -51.5878 4.16484 37.0073 -2.24114 -4.5687 -56.0396 21.0059 1.199 1.83032 20.4813 13.8184 -4.44543 3.13641 15.5846 10.0794 
61.3839 87.3237 -37.7582 71.1317 3.54174 102.703 -154.548 50.4836 89.2375 -60.1361 10.821 -6.92705 64.3921 13.7967 23.0961 63.7588 31.4482 -13.8388 176.63 5.68903 81.0997 -24.2429 14.6468 -5.64366 46.7504 -1.03785 -0.210656 27.4239 -0.871618 10.5126 1.02431 7.46398 -90.0052 11.9493 2.03431 -0.229972 0.279886 2.02222 -0.319328 -22.2678 2.00933 0.392312 -2.25513 2.00936 0.392317 86.9166 -43.0114 -107.685 35.0636 -14.4108 15.189 -23.2217 6.85031 -94.0613 -16.5041 -1.50642 5.98904 -100.007 -40.3786 60.0949 -46.4513 2.71012 34.2736 -2.58712 -5.68681 -56.1728 24.0189 1.65447 3.09604 21.4699 11.5167 -5.50111 4.13187 13.5358 7.11968 
65.0153 86.8998 -41.1139 69.8694 8.55411 104.757 -157.697 48.4379 88.8585 -59.9126 14.475 -6.40352 62.0916 13.9267 28.2442 69.0652 35.2917 -15.1476 178.835 10.3968 84.9278 -38.7295 13.5363 -5.59496 47.669 -1.42217 -0.593209 31.3841 -0.35931 12.5472 0.778185 7.56563 -89.7808 11.7417 1.65067 0.262788 0.0718098 1.66062 0.18986 -22.4704 1.49536 0.746837 -2.45772 1.49534 0.746824 85.6835 -44.3412 -109.24 35.1321 -13.5188 17.3688 -20.1055 -0.762402 -86.7195 -15.6624 -1.29353 4.80434 -101.768 -42.53 58.3086 -39.872 1.25447 30.9113 -2.33007 -6.09751 -58.8045 29.2457 2.03491 3.11224 21.847 9.59442 -6.2974 6.55431 11.909 5.33382 
68.3782 86.7283 -44.383 69.1661 15.126 105.632 -161.362 45.4855 87.7042 -61.1811 14.011 -4.77193 63.9305 13.5167 23.1996 68.3877 35.3353 -13.8669 179.056 17.61 88.3456 -55.1276 10.5416 -4.81329 44.9622 -0.416941 0.195467 34.621 0.148973 18.0583 0.356181 7.94319 -89.4609 10.9824 0.958768 0.98121 -0.688501 1.00104 0.938054 -23.2221 0.619578 1.22397 -3.20944 0.619587 1.22397 84.4957 -46.7758 -110.277 34.2782 -15.1482 18.6136 -14.6609 -4.05361 -75.0256 -16.4122 -1.10436 2.92731 -102.387 -43.183 57.6554 -32.9732 -0.808056 25.3209 -1.3484 -5.46515 -62.4178 33.9713 2.43687 3.3194 23.5644 7.47896 -8.83213 8.57959 10.9669 5.70228 
71.8564 85.9838 -47.7347 69.0975 20.919 105.476 -164.282 40.5002 86.458 -60.3062 17.0525 -4.39846 62.5039 14.2442 26.529 72.0883 38.129 -14.4935 178.299 26.5284 90.8374 -70.8629 6.3769 -4.3195 46.0545 -0.176799 0.271088 41.4102 1.50379 15.7339 0.0476489 8.32711 -89.2452 10.2141 0.439783 1.46057 -1.45757 0.503606 1.43979 -23.9861 -0.0194823 1.52519 -3.97349 -0.0194745 1.52519 82.9407 -47.8864 -112.281 36.244 -13.2536 23.679 -12.632 -6.01338 -66.9455 -15.0186 -1.11845 3.73138 -103.4 -42.8994 55.9793 -27.3849 -3.8048 19.4324 2.29516 -3.11833 -70.0395 36.9194 3.39927 5.4013 22.683 6.33319 -8.09289 11.7385 9.50696 4.33401 
